# xmcd CD database file
#
# Track frame offsets:
#	150
#	17536
#	35561
#	49607
#	68314
#	92634
#	105614
#	108558
#	126485
#	161294
#	198619
#	222820
#	245212
#	263980
#
# Disc length: 3941 seconds
#
# Revision: 0
# Processed by: cddbd v1.5.2PL0 Copyright (c) Steve Scherf et al.
# Submitted via: CDex 1.70beta2
#
DISCID=c10f630e
DTITLE=Various Artist - Unofficial Punk Jazz Compilation
DYEAR=2006
DGENRE=Jazz
TTITLE0=Tres Hombres - Come on
TTITLE1=Tres Hombres - Kauf nicht immer so viel rote Rosen
TTITLE2=Tres Hombres - Bukowski sucht Bach
TTITLE3=Tres Hombres - Die Schausteller
TTITLE4=Tres Hombres - Die Ruckkehr von Inspektor Clouseau
TTITLE5=Uz jsme doma - Jazz 1960
TTITLE6=Uz jsme doma - Delikatesa
TTITLE7=Claw Hammer - Caravan
TTITLE8=Claw Hammer - Nightmare
TTITLE9=Claw Hammer - All Blues
TTITLE10=Claw Hammer - Sick Fish Belly Up
TTITLE11=Sex Mob - Solid Sender
TTITLE12=Sex Mob - About a Girl
TTITLE13=Sex Mob - Fernando
EXTD=YEAR: 2006
EXTT0=
EXTT1=
EXTT2=
EXTT3=
EXTT4=
EXTT5=
EXTT6=
EXTT7=
EXTT8=
EXTT9=
EXTT10=
EXTT11=
EXTT12=
EXTT13=
PLAYORDER=
